<svg width="638" height="635" viewBox="0 0 638 635" fill="none" xmlns="http://www.w3.org/2000/svg">
<path d="M465.423 0.878906H172.551C77.554 0.878906 0.554688 77.4626 0.554688 171.916V463.111C0.554688 557.564 77.554 634.122 172.551 634.122H465.423C560.421 634.122 637.445 557.564 637.445 463.111V171.916C637.445 77.4626 560.421 0.878906 465.423 0.878906ZM284.835 490.863L239.408 544.497C226.672 559.535 201.938 555.264 195.049 536.838C190.041 523.518 185.058 510.173 180.076 496.853C176.771 488.057 168.814 481.713 159.358 480.348C146.317 478.453 133.276 476.582 120.235 474.687C100.178 471.78 90.9762 448.603 103.839 433.412L148.757 380.41C154.426 373.713 163.247 370.401 172.094 371.539C196.167 374.622 222.478 375.103 246.678 378.035C256.719 379.248 265.159 386.072 268.311 395.449C276.014 418.399 281.581 443.826 289.41 466.624C292.257 474.965 290.605 484.114 284.885 490.838L284.835 490.863ZM405.939 350.687L360.487 404.321C347.751 419.359 323.016 415.088 316.127 396.662C311.12 383.342 306.137 370.022 301.155 356.677C297.85 347.881 289.893 341.563 280.437 340.172C267.396 338.302 254.355 336.406 241.314 334.511C221.257 331.604 212.055 308.402 224.918 293.211L269.836 240.209C275.505 233.511 284.326 230.2 293.173 231.338C317.246 234.421 343.556 234.901 367.757 237.833C377.798 239.047 386.238 245.846 389.39 255.248C397.067 278.198 402.66 303.625 410.464 326.423C413.311 334.764 411.659 343.913 405.939 350.662V350.687ZM519.671 215.44L474.219 269.073C461.483 284.112 436.749 279.841 429.86 261.415C424.877 248.095 419.869 234.75 414.887 221.43C411.608 212.634 403.651 206.315 394.169 204.95C381.128 203.055 368.062 201.159 355.047 199.289C334.99 196.382 325.787 173.205 338.65 158.014L383.569 104.987C389.237 98.2893 398.058 94.9783 406.93 96.1156C431.004 99.1992 457.289 99.6794 481.515 102.611C491.556 103.825 499.996 110.624 503.148 120.026C510.825 142.976 516.417 168.403 524.221 191.201C527.069 199.542 525.416 208.691 519.697 215.414L519.671 215.44Z" fill="#141B34" fill-opacity="0.12"/>
</svg>
